<svg id="Layer_1" data-name="Layer 1" xmlns="http://www.w3.org/2000/svg" viewBox="0 0 1000 1000"><defs><style>.cls-1,.cls-2{fill:none;stroke-miterlimit:10;stroke-width:5px;}.cls-1{stroke:#939598;}.cls-2{stroke:#877eab;}.cls-3{fill:#939598;}.cls-4{fill:#877eab;}.cls-5{fill:#e0e0e0;}</style></defs><title>caesiumelectron</title><circle class="cls-1" cx="500" cy="512.22" r="394.36"/><circle class="cls-2" cx="500" cy="512.22" r="473.24"/><circle class="cls-2" cx="500" cy="512.22" r="165.55"/><circle class="cls-1" cx="500" cy="512.22" r="236.62"/><circle class="cls-1" cx="500" cy="512.22" r="94.65"/><circle class="cls-3" cx="500" cy="117.86" r="24.45"/><circle class="cls-4" cx="498.24" cy="38.99" r="24.45"/><circle class="cls-3" cx="221.14" cy="233.37" r="24.45"/><circle class="cls-3" cx="105.64" cy="512.22" r="24.45"/><circle class="cls-3" cx="221.14" cy="791.08" r="24.45"/><circle class="cls-3" cx="500" cy="906.59" r="24.45"/><circle class="cls-3" cx="778.86" cy="791.08" r="24.45"/><circle class="cls-3" cx="894.36" cy="512.22" r="24.45"/><circle class="cls-3" cx="778.86" cy="233.37" r="24.45"/><circle class="cls-3" cx="500" cy="275.6" r="24.45"/><circle class="cls-3" cx="501.76" cy="600.57" r="24.45"/><circle class="cls-3" cx="500" cy="417.58" r="24.45"/><circle class="cls-3" cx="419.07" cy="289.87" r="24.45"/><circle class="cls-3" cx="347.9" cy="330.96" r="24.45"/><circle class="cls-3" cx="295.08" cy="393.91" r="24.45"/><circle class="cls-3" cx="266.98" cy="471.13" r="24.45"/><circle class="cls-3" cx="266.98" cy="553.31" r="24.45"/><circle class="cls-3" cx="295.08" cy="630.53" r="24.45"/><circle class="cls-3" cx="347.9" cy="693.48" r="24.45"/><circle class="cls-3" cx="419.07" cy="734.57" r="24.45"/><circle class="cls-3" cx="500" cy="748.84" r="24.45"/><circle class="cls-3" cx="580.93" cy="734.57" r="24.45"/><circle class="cls-3" cx="652.1" cy="693.48" r="24.45"/><circle class="cls-3" cx="704.92" cy="630.53" r="24.45"/><circle class="cls-3" cx="733.02" cy="553.31" r="24.45"/><circle class="cls-3" cx="733.02" cy="471.13" r="24.45"/><circle class="cls-3" cx="704.92" cy="393.91" r="24.45"/><circle class="cls-3" cx="652.1" cy="330.96" r="24.45"/><circle class="cls-3" cx="580.93" cy="289.87" r="24.45"/><circle class="cls-4" cx="500" cy="347.52" r="25.52"/><circle class="cls-4" cx="382.24" cy="397.06" r="25.52"/><circle class="cls-4" cx="335.3" cy="514.06" r="25.52"/><circle class="cls-4" cx="384.84" cy="629.98" r="25.52"/><circle class="cls-4" cx="501.84" cy="676.92" r="25.52"/><circle class="cls-4" cx="617.76" cy="627.38" r="25.52"/><circle class="cls-4" cx="664.7" cy="510.38" r="25.52"/><circle class="cls-4" cx="615.16" cy="394.46" r="25.52"/><circle class="cls-2" cx="500" cy="512.22" r="315.49"/><circle class="cls-5" cx="500" cy="196.73" r="24.45"/><circle class="cls-4" cx="500" cy="196.73" r="24.45"/><circle class="cls-4" cx="392.1" cy="215.76" r="24.45"/><circle class="cls-4" cx="297.21" cy="270.54" r="24.45"/><circle class="cls-4" cx="226.78" cy="354.48" r="24.45"/><circle class="cls-4" cx="189.3" cy="457.44" r="24.45"/><circle class="cls-4" cx="189.3" cy="567.01" r="24.45"/><circle class="cls-4" cx="226.78" cy="669.97" r="24.45"/><circle class="cls-4" cx="297.21" cy="753.9" r="24.45"/><circle class="cls-4" cx="392.1" cy="808.69" r="24.45"/><circle class="cls-4" cx="500" cy="827.71" r="24.45"/><circle class="cls-4" cx="607.9" cy="808.69" r="24.45"/><circle class="cls-4" cx="702.79" cy="753.9" r="24.45"/><circle class="cls-4" cx="773.22" cy="669.97" r="24.45"/><circle class="cls-4" cx="810.7" cy="567.01" r="24.45"/><circle class="cls-4" cx="810.7" cy="457.44" r="24.45"/><circle class="cls-4" cx="773.22" cy="354.48" r="24.45"/><circle class="cls-4" cx="702.79" cy="270.54" r="24.45"/><circle class="cls-4" cx="607.9" cy="215.76" r="24.45"/><path class="cls-4" d="M500,477.44a34.78,34.78,0,1,0,34.78,34.78A34.78,34.78,0,0,0,500,477.44Zm-12.28,40.67a6,6,0,0,0,4.59,1.85,4.94,4.94,0,0,0,4.75-2.73h5a9.39,9.39,0,0,1-3.76,4.83,10.76,10.76,0,0,1-6,1.71,10.35,10.35,0,0,1-7.54-3,11,11,0,0,1,0-15.2,10.37,10.37,0,0,1,7.53-3,10.68,10.68,0,0,1,6,1.72,9.46,9.46,0,0,1,3.76,4.84h-5a4.9,4.9,0,0,0-4.75-2.73,6.08,6.08,0,0,0-4.59,1.85,7.78,7.78,0,0,0,0,9.86Zm28.68,4.32a9,9,0,0,1-9.6,0,5.09,5.09,0,0,1-2.05-4H509c.15,1.39,1,2.08,2.64,2.08a3.09,3.09,0,0,0,1.87-.52,1.63,1.63,0,0,0,.71-1.37,1.48,1.48,0,0,0-1-1.33,9.17,9.17,0,0,0-2.37-.76c-.94-.18-1.86-.4-2.78-.65a5.26,5.26,0,0,1-2.36-1.38,3.57,3.57,0,0,1-1-2.6,4.42,4.42,0,0,1,1.81-3.59,8.7,8.7,0,0,1,9.62,0,5.05,5.05,0,0,1,1.93,3.91h-4.28c-.12-1.39-1-2.08-2.55-2.08a3.13,3.13,0,0,0-1.84.47,1.55,1.55,0,0,0-.65,1.31,1.45,1.45,0,0,0,1,1.31,9.89,9.89,0,0,0,2.37.74c.93.18,1.86.4,2.78.67a5.16,5.16,0,0,1,2.36,1.42,3.78,3.78,0,0,1,1,2.72A4.31,4.31,0,0,1,516.4,522.43Z"/></svg>