<svg id="Layer_1" data-name="Layer 1" xmlns="http://www.w3.org/2000/svg" viewBox="0 0 256 256"><defs><style>.cls-1{fill:#424242;}.cls-2{fill:none;stroke:#424242;stroke-miterlimit:10;stroke-width:5px;}</style></defs><title>caesium</title><path class="cls-1" d="M251,5V251H5V5H251m5-5H0V256H256V0Z"/><line class="cls-2" x1="193.33" y1="147.29" x2="62.67" y2="147.29"/><path class="cls-1" d="M86.88,99.05Q78.65,91,78.64,78.57t8.28-20.48A28,28,0,0,1,107.2,50a28.91,28.91,0,0,1,16.2,4.64,25.51,25.51,0,0,1,10.12,13H120q-3.77-7.35-12.8-7.36a16.3,16.3,0,0,0-12.36,5q-4.75,5-4.76,13.28t4.76,13.28a16.26,16.26,0,0,0,12.36,5q9,0,12.8-7.36h13.52a25.25,25.25,0,0,1-10.12,13,29,29,0,0,1-16.2,4.6A27.88,27.88,0,0,1,86.88,99.05Z"/><path class="cls-1" d="M141,75.29a12,12,0,0,1,4.88-9.68q4.88-3.91,13-3.92t13,3.88A13.64,13.64,0,0,1,177,76.09H165.44q-.48-5.59-6.88-5.6a8.34,8.34,0,0,0-5,1.28,4.12,4.12,0,0,0-1.76,3.52q0,2.25,2.64,3.52a25.55,25.55,0,0,0,6.4,2q3.76.72,7.48,1.8a14.07,14.07,0,0,1,6.36,3.84,10.15,10.15,0,0,1,2.64,7.32,11.6,11.6,0,0,1-5.08,9.76q-5.09,3.77-13,3.76t-12.92-3.72a13.73,13.73,0,0,1-5.52-10.68H152.4q.65,5.6,7.12,5.6a8.31,8.31,0,0,0,5-1.4,4.34,4.34,0,0,0,1.92-3.68q0-2.28-2.64-3.6a24.71,24.71,0,0,0-6.4-2c-2.51-.48-5-1.06-7.48-1.76a14,14,0,0,1-6.36-3.72A9.55,9.55,0,0,1,141,75.29Z"/><path class="cls-1" d="M77,203.52a8.8,8.8,0,0,1,0-12.23A8.34,8.34,0,0,1,83,188.88a8.7,8.7,0,0,1,4.74,1.3,7.5,7.5,0,0,1,3,3.71H87.48A4.68,4.68,0,0,0,83,191.37,5.43,5.43,0,0,0,78.9,193a6.8,6.8,0,0,0,0,8.76A5.45,5.45,0,0,0,83,203.44a4.68,4.68,0,0,0,4.47-2.52h3.29a7.39,7.39,0,0,1-3,3.7,8.78,8.78,0,0,1-4.74,1.3A8.37,8.37,0,0,1,77,203.52Z"/><path class="cls-1" d="M94.89,204.06a7,7,0,0,1-1.8-4.95,6.8,6.8,0,0,1,1.79-4.89,5.88,5.88,0,0,1,4.45-1.89,5.29,5.29,0,0,1,2.75.71,5,5,0,0,1,1.84,1.86v-2.35h2.76v13.22h-2.76V203.3a5.28,5.28,0,0,1-1.85,2,5.08,5.08,0,0,1-2.74.73A5.85,5.85,0,0,1,94.89,204.06Zm7.84-1.66a5,5,0,0,0,0-6.49,3.83,3.83,0,0,0-2.82-1.2,3.88,3.88,0,0,0-2.82,1.17,4.35,4.35,0,0,0-1.19,3.22,4.56,4.56,0,0,0,1.19,3.28,3.87,3.87,0,0,0,5.64,0Z"/><path class="cls-1" d="M115.89,206a6.23,6.23,0,0,1-4.68-1.87,6.88,6.88,0,0,1-1.8-5,6.76,6.76,0,0,1,1.83-5,6.29,6.29,0,0,1,4.71-1.86,6.41,6.41,0,0,1,4.7,1.79,6.32,6.32,0,0,1,1.79,4.67,8.71,8.71,0,0,1-.09,1.29H112.22a3.76,3.76,0,0,0,1.12,2.63,3.54,3.54,0,0,0,2.55,1,3.23,3.23,0,0,0,3.15-1.84H122a5.9,5.9,0,0,1-2.19,3A6.39,6.39,0,0,1,115.89,206Zm2.62-10.38a3.66,3.66,0,0,0-2.57-1,3.51,3.51,0,0,0-2.53,1,4,4,0,0,0-1.17,2.6h7.35A3.46,3.46,0,0,0,118.51,195.61Z"/><path class="cls-1" d="M124.58,196.34A3.53,3.53,0,0,1,126,193.5a5.64,5.64,0,0,1,3.72-1.17,5.53,5.53,0,0,1,3.66,1.14,4.17,4.17,0,0,1,1.45,3.11H132a2.24,2.24,0,0,0-.68-1.54,2.52,2.52,0,0,0-1.72-.55,2.78,2.78,0,0,0-1.73.49,1.59,1.59,0,0,0-.62,1.3,1.39,1.39,0,0,0,.79,1.26,6.16,6.16,0,0,0,1.93.67c.76.15,1.52.32,2.28.53a4.11,4.11,0,0,1,1.93,1.14,3.07,3.07,0,0,1,.8,2.22,3.35,3.35,0,0,1-1.46,2.81,6.07,6.07,0,0,1-3.73,1.08,5.79,5.79,0,0,1-3.69-1.11,4.09,4.09,0,0,1-1.56-3.14h2.83a2.15,2.15,0,0,0,.72,1.54,2.67,2.67,0,0,0,1.76.55,2.89,2.89,0,0,0,1.78-.49,1.56,1.56,0,0,0,.66-1.31,1.41,1.41,0,0,0-.79-1.27,6.22,6.22,0,0,0-1.94-.69c-.76-.15-1.52-.32-2.28-.53a4.16,4.16,0,0,1-1.93-1.09A2.84,2.84,0,0,1,124.58,196.34Z"/><path class="cls-1" d="M141.16,189a1.67,1.67,0,0,1-.5,1.25,1.68,1.68,0,0,1-1.24.51,1.76,1.76,0,0,1,0-3.51,1.68,1.68,0,0,1,1.24.51A1.66,1.66,0,0,1,141.16,189ZM138,205.77V192.55h2.74v13.22Z"/><path class="cls-1" d="M153.67,192.55h2.73v13.22h-2.73v-2.09a4.47,4.47,0,0,1-4.23,2.28,5,5,0,0,1-3.68-1.47,5.66,5.66,0,0,1-1.45-4.14v-7.8H147v7.39a3.84,3.84,0,0,0,.89,2.72,3.13,3.13,0,0,0,2.42,1,3.17,3.17,0,0,0,2.44-1,3.8,3.8,0,0,0,.9-2.72Z"/><path class="cls-1" d="M162.79,192.55v2.09a4.5,4.5,0,0,1,4.22-2.31,5.21,5.21,0,0,1,2.74.72,4.55,4.55,0,0,1,1.82,2.09,5.19,5.19,0,0,1,1.93-2.06,5.31,5.31,0,0,1,2.8-.75,5,5,0,0,1,3.74,1.48,5.63,5.63,0,0,1,1.47,4.16v7.8h-2.74v-7.39a3.8,3.8,0,0,0-.89-2.72,3.56,3.56,0,0,0-4.84,0,3.8,3.8,0,0,0-.89,2.72v7.39h-2.71v-7.39a3.84,3.84,0,0,0-.89-2.72,3.58,3.58,0,0,0-4.86,0,3.8,3.8,0,0,0-.9,2.72v7.39h-2.74V192.55Z"/></svg>