<svg id="Layer_1" data-name="Layer 1" xmlns="http://www.w3.org/2000/svg" xmlns:xlink="http://www.w3.org/1999/xlink" viewBox="0 0 303.3 239"><defs><style>.cls-1{fill:none;stroke:#424243;stroke-miterlimit:10;stroke-width:5px;}.cls-2{fill:#fff;}.cls-3{fill:url(#linear-gradient);}.cls-4{fill:#424243;}</style><linearGradient id="linear-gradient" x1="86.21" y1="168.91" x2="215.29" y2="39.84" gradientUnits="userSpaceOnUse"><stop offset="0" stop-color="#25a9e0"/><stop offset="0.23" stop-color="#25a6de"/><stop offset="0.41" stop-color="#269cd7"/><stop offset="0.57" stop-color="#278bcb"/><stop offset="0.72" stop-color="#2874ba"/><stop offset="0.87" stop-color="#2956a4"/><stop offset="0.99" stop-color="#2b388f"/></linearGradient></defs><title>elementscolour</title><path class="cls-1" d="M131.71,109.21C190,51,246.1,12.67,257.11,23.69c7,7-5.85,32.1-31,64.4-10.08,12.94-22.15,27-35.71,41.57-6,6.41-12.26,12.91-18.79,19.43-9.56,9.57-19.07,18.59-28.33,26.95-47.13,42.55-87.87,67.78-97.08,58.58C35.17,223.6,73.46,167.45,131.71,109.21Z"/><path class="cls-1" d="M131.71,149.09c8.1,8.11,16.16,15.82,24.06,23.07C204.7,217,247.63,244.1,257.11,234.62c7-7-5.85-32.11-31-64.41-10.08-12.94-22.15-27-35.71-41.56q-9-9.63-18.79-19.44c-9.56-9.57-19.07-18.59-28.33-26.95C96.13,39.72,55.39,14.48,46.18,23.69,35.17,34.7,73.46,90.85,131.71,149.09Z"/><path class="cls-1" d="M151.65,157.36c82.37,0,149.15-12.63,149.15-28.21,0-9.87-26.84-18.56-67.47-23.6-16.29-2-34.78-3.45-54.65-4.14-8.77-.31-17.8-.46-27-.46-13.53,0-26.63.34-39.09,1C49.15,105.17,2.5,116.13,2.5,129.15,2.5,144.73,69.28,157.36,151.65,157.36Z"/><path class="cls-2" d="M156.3,163.68c-23.42,0-47-19-47-42.4a74.08,74.08,0,0,1,1.33-13.68,73.13,73.13,0,0,0-4.14,23.23c0,20.57,20.72,37.23,41.28,37.23a35.67,35.67,0,0,0,19.83-6A40.79,40.79,0,0,1,156.3,163.68Z"/><path class="cls-3" d="M92.63,125.8c0-34.7,24.29-63.44,40.85-80.26,1.5-1.51-5.19,14.72-7.11,26.53-1.18,7.24.83,13.26,3.52,11.2C148.61,69,155.82,20.71,150.94.27c-1.19-5,59.25,59.67,59.25,124.74,0,31-24.34,56.92-55.33,56.92S92.63,156.8,92.63,125.8Z"/><path class="cls-1" d="M116.65,59.51C81.46,31.2,53.6,16.27,46.18,23.69"/><path class="cls-1" d="M257.11,234.62c7-7-5.85-32.11-31-64.41-10.08-12.94-22.15-27-35.71-41.56q-9-9.63-18.79-19.44c-9.56-9.57-19.07-18.59-28.33-26.95q-7-6.35-13.85-12.16"/><path class="cls-1" d="M2.5,129.15c0,15.58,66.78,28.21,149.15,28.21S300.8,144.73,300.8,129.15"/><path class="cls-1" d="M46.18,234.62c-11-11,27.28-67.17,85.53-125.41S246.1,12.67,257.11,23.69"/><circle class="cls-4" cx="48.38" cy="149.49" r="7.87"/><circle class="cls-4" cx="207.7" cy="43.55" r="7.87"/><circle class="cls-4" cx="236.74" cy="183.24" r="7.87"/></svg>