<svg id="Layer_1" data-name="Layer 1" xmlns="http://www.w3.org/2000/svg" viewBox="0 0 1000 1000"><defs><style>.cls-1,.cls-2{fill:none;stroke-miterlimit:10;stroke-width:5px;}.cls-1{stroke:#939598;}.cls-2{stroke:#81c784;}.cls-3{fill:#939598;}.cls-4{fill:#81c784;}</style></defs><title>franciumelectron</title><circle class="cls-1" cx="500" cy="510.01" r="258.39"/><circle class="cls-2" cx="500" cy="510.01" r="322.99"/><circle class="cls-1" cx="500" cy="510.01" r="396.99"/><circle class="cls-2" cx="500" cy="510.01" r="465.11"/><circle class="cls-1" cx="500" cy="510.01" r="129.2"/><circle class="cls-2" cx="500" cy="510.01" r="193.8"/><circle class="cls-2" cx="500" cy="510.01" r="77.52"/><circle class="cls-3" cx="500" cy="113.02" r="20.02"/><circle class="cls-3" cx="220.28" cy="231.24" r="20.02"/><circle class="cls-3" cx="103.21" cy="511.02" r="20.02"/><circle class="cls-3" cx="220.28" cy="793.5" r="20.02"/><circle class="cls-3" cx="500" cy="907" r="20.02"/><circle class="cls-3" cx="782.22" cy="788.79" r="20.02"/><circle class="cls-3" cx="896.99" cy="510.01" r="20.02"/><circle class="cls-3" cx="778.42" cy="228.94" r="20.02"/><circle class="cls-4" cx="500" cy="187.02" r="20.02"/><circle class="cls-4" cx="498.56" cy="44.9" r="20.02"/><circle class="cls-4" cx="389.53" cy="206.5" r="20.02"/><circle class="cls-4" cx="292.38" cy="262.58" r="20.02"/><circle class="cls-4" cx="220.28" cy="348.51" r="20.02"/><circle class="cls-4" cx="181.91" cy="453.92" r="20.02"/><circle class="cls-4" cx="181.91" cy="566.1" r="20.02"/><circle class="cls-4" cx="220.28" cy="671.51" r="20.02"/><circle class="cls-4" cx="292.38" cy="757.44" r="20.02"/><circle class="cls-4" cx="389.53" cy="813.53" r="20.02"/><circle class="cls-4" cx="500" cy="833" r="20.02"/><circle class="cls-4" cx="610.47" cy="813.53" r="20.02"/><circle class="cls-4" cx="707.62" cy="757.44" r="20.02"/><circle class="cls-4" cx="779.72" cy="671.51" r="20.02"/><circle class="cls-4" cx="818.09" cy="566.1" r="20.02"/><circle class="cls-4" cx="818.09" cy="453.92" r="20.02"/><circle class="cls-4" cx="779.72" cy="348.51" r="20.02"/><circle class="cls-4" cx="707.62" cy="262.58" r="20.02"/><circle class="cls-4" cx="610.47" cy="206.5" r="20.02"/><circle class="cls-4" cx="500" cy="316.22" r="20.02"/><circle class="cls-4" cx="498.56" cy="582.37" r="20.02"/><circle class="cls-4" cx="498.56" cy="432.49" r="20.02"/><circle class="cls-4" cx="433.72" cy="327.9" r="20.02"/><circle class="cls-4" cx="375.43" cy="361.55" r="20.02"/><circle class="cls-4" cx="332.17" cy="413.11" r="20.02"/><circle class="cls-4" cx="309.15" cy="476.36" r="20.02"/><circle class="cls-4" cx="309.15" cy="543.66" r="20.02"/><circle class="cls-4" cx="332.17" cy="606.91" r="20.02"/><circle class="cls-4" cx="375.43" cy="658.47" r="20.02"/><circle class="cls-4" cx="433.72" cy="692.12" r="20.02"/><circle class="cls-4" cx="498.56" cy="703.81" r="20.02"/><circle class="cls-4" cx="566.28" cy="692.12" r="20.02"/><circle class="cls-4" cx="624.57" cy="658.47" r="20.02"/><circle class="cls-4" cx="667.83" cy="606.91" r="20.02"/><circle class="cls-4" cx="690.85" cy="543.66" r="20.02"/><circle class="cls-4" cx="690.85" cy="476.36" r="20.02"/><circle class="cls-4" cx="667.83" cy="413.11" r="20.02"/><circle class="cls-4" cx="624.57" cy="361.55" r="20.02"/><circle class="cls-4" cx="566.28" cy="327.9" r="20.02"/><circle class="cls-3" cx="498.56" cy="380.81" r="20.02"/><circle class="cls-3" cx="407.62" cy="419.67" r="20.02"/><circle class="cls-3" cx="370.8" cy="511.45" r="20.02"/><circle class="cls-3" cx="409.66" cy="602.39" r="20.02"/><circle class="cls-3" cx="498.56" cy="639.21" r="20.02"/><circle class="cls-3" cx="592.38" cy="600.35" r="20.02"/><circle class="cls-3" cx="629.2" cy="508.57" r="20.02"/><circle class="cls-3" cx="590.34" cy="417.63" r="20.02"/><circle class="cls-3" cx="500" cy="251.62" r="20.02"/><circle class="cls-3" cx="449.59" cy="256.58" r="20.02"/><circle class="cls-3" cx="401.12" cy="271.29" r="20.02"/><circle class="cls-3" cx="356.44" cy="295.16" r="20.02"/><circle class="cls-3" cx="317.29" cy="327.3" r="20.02"/><circle class="cls-3" cx="285.15" cy="366.45" r="20.02"/><circle class="cls-3" cx="261.27" cy="411.13" r="20.02"/><circle class="cls-3" cx="246.57" cy="459.6" r="20.02"/><circle class="cls-3" cx="241.61" cy="510.01" r="20.02"/><circle class="cls-3" cx="246.57" cy="560.42" r="20.02"/><circle class="cls-3" cx="261.27" cy="608.89" r="20.02"/><circle class="cls-3" cx="285.15" cy="653.57" r="20.02"/><circle class="cls-3" cx="317.29" cy="692.72" r="20.02"/><circle class="cls-3" cx="356.44" cy="724.86" r="20.02"/><circle class="cls-3" cx="401.12" cy="748.74" r="20.02"/><circle class="cls-3" cx="449.59" cy="763.44" r="20.02"/><circle class="cls-3" cx="500" cy="768.41" r="20.02"/><circle class="cls-3" cx="550.41" cy="763.44" r="20.02"/><circle class="cls-3" cx="598.88" cy="748.74" r="20.02"/><circle class="cls-3" cx="643.56" cy="724.86" r="20.02"/><circle class="cls-3" cx="682.71" cy="692.72" r="20.02"/><circle class="cls-3" cx="714.85" cy="653.57" r="20.02"/><circle class="cls-3" cx="738.73" cy="608.89" r="20.02"/><circle class="cls-3" cx="753.43" cy="560.42" r="20.02"/><circle class="cls-3" cx="758.39" cy="510.01" r="20.02"/><circle class="cls-3" cx="753.43" cy="459.6" r="20.02"/><circle class="cls-3" cx="738.73" cy="411.13" r="20.02"/><circle class="cls-3" cx="714.85" cy="366.45" r="20.02"/><circle class="cls-3" cx="682.71" cy="327.3" r="20.02"/><circle class="cls-3" cx="643.56" cy="295.16" r="20.02"/><circle class="cls-3" cx="598.88" cy="271.29" r="20.02"/><circle class="cls-3" cx="550.41" cy="256.58" r="20.02"/><path class="cls-4" d="M500,481.53A28.49,28.49,0,1,0,528.48,510,28.48,28.48,0,0,0,500,481.53Zm.83,23.54h-7.08v4.45h5.4v2.63h-5.4v7.27h-3.43v-17h10.51Zm10.06,4.18H510a3.17,3.17,0,0,0-2.31.77,3.62,3.62,0,0,0-.78,2.64v6.76h-3.42V505.94H507v2.39a4.28,4.28,0,0,1,3.94-2.58Z"/></svg>