<svg id="Layer_1" data-name="Layer 1" xmlns="http://www.w3.org/2000/svg" viewBox="0 0 256 256"><defs><style>.cls-1{fill:#424242;}.cls-2{fill:none;stroke:#424242;stroke-miterlimit:10;stroke-width:5px;}</style></defs><title>francium</title><path class="cls-1" d="M251,5V251H5V5H251m5-5H0V256H256V0Z"/><line class="cls-2" x1="193.33" y1="146.57" x2="62.67" y2="146.57"/><path class="cls-1" d="M94.08,106.57V50.73h34.56v8.64H105.36V74h17.76v8.64H105.36v23.92Z"/><path class="cls-1" d="M149,62.25v7.84q4.48-8.48,13-8.48V73.13h-2.8q-5,0-7.6,2.52c-1.71,1.68-2.56,4.58-2.56,8.68v22.24H137.68V62.25Z"/><path class="cls-1" d="M72.24,205.05V188.37h9.81v2.14H75v5.06h5.52v2.11H75v7.37Z"/><path class="cls-1" d="M87.38,191.83v2.3a4.18,4.18,0,0,1,4-2.52v2.83h-.69a3.34,3.34,0,0,0-2.44.82,3.91,3.91,0,0,0-.83,2.83v7H84.65V191.83Z"/><path class="cls-1" d="M94.8,203.34a7,7,0,0,1-1.8-5,6.8,6.8,0,0,1,1.78-4.89,5.9,5.9,0,0,1,4.46-1.89,5.25,5.25,0,0,1,2.74.71,4.9,4.9,0,0,1,1.84,1.86v-2.35h2.76v13.22h-2.76v-2.47a5.2,5.2,0,0,1-1.85,2,5.11,5.11,0,0,1-2.73.73A5.85,5.85,0,0,1,94.8,203.34Zm7.83-1.66a5,5,0,0,0,0-6.49,3.83,3.83,0,0,0-2.82-1.2A3.88,3.88,0,0,0,97,195.16a4.35,4.35,0,0,0-1.19,3.22A4.56,4.56,0,0,0,97,201.66a3.87,3.87,0,0,0,5.64,0Z"/><path class="cls-1" d="M113,191.83v2.09a4.51,4.51,0,0,1,4.23-2.31,4.93,4.93,0,0,1,3.68,1.49,5.69,5.69,0,0,1,1.45,4.15v7.8h-2.71v-7.39a3.8,3.8,0,0,0-.89-2.72,3.13,3.13,0,0,0-2.42-.95,3.19,3.19,0,0,0-2.44.95,3.8,3.8,0,0,0-.9,2.72v7.39h-2.73V191.83Z"/><path class="cls-1" d="M126.74,203.4a7.72,7.72,0,0,1,0-9.92,6.25,6.25,0,0,1,4.67-1.87,6.59,6.59,0,0,1,4,1.14,5.64,5.64,0,0,1,2.13,3.25h-3a3,3,0,0,0-3.14-2.08,3.33,3.33,0,0,0-2.68,1.18,6.1,6.1,0,0,0,0,6.66,3.31,3.31,0,0,0,2.68,1.2,3,3,0,0,0,3.14-2.08h3a6,6,0,0,1-2.16,3.2,6.4,6.4,0,0,1-3.94,1.19A6.23,6.23,0,0,1,126.74,203.4Z"/><path class="cls-1" d="M143.42,188.32a1.7,1.7,0,0,1-.5,1.25,1.76,1.76,0,0,1-2.48,0,1.8,1.8,0,0,1,0-2.49,1.74,1.74,0,0,1,3,1.24Zm-3.12,16.73V191.83H143v13.22Z"/><path class="cls-1" d="M155.92,191.83h2.74v13.22h-2.74V203a4.48,4.48,0,0,1-4.22,2.28,4.93,4.93,0,0,1-3.68-1.47,5.67,5.67,0,0,1-1.46-4.14v-7.8h2.72v7.39a3.84,3.84,0,0,0,.88,2.72,3.58,3.58,0,0,0,4.86,0,3.8,3.8,0,0,0,.9-2.72Z"/><path class="cls-1" d="M165,191.83v2.09a4.51,4.51,0,0,1,4.23-2.31,5.2,5.2,0,0,1,2.73.72,4.62,4.62,0,0,1,1.83,2.09,5.12,5.12,0,0,1,1.93-2.06,5.29,5.29,0,0,1,2.8-.75,5,5,0,0,1,3.74,1.48,5.67,5.67,0,0,1,1.46,4.16v7.8H181v-7.39a3.84,3.84,0,0,0-.89-2.72,3.57,3.57,0,0,0-4.85,0,3.84,3.84,0,0,0-.89,2.72v7.39h-2.71v-7.39a3.8,3.8,0,0,0-.89-2.72,3.13,3.13,0,0,0-2.42-.95,3.17,3.17,0,0,0-2.44.95,3.8,3.8,0,0,0-.9,2.72v7.39h-2.73V191.83Z"/></svg>