<svg id="Layer_1" data-name="Layer 1" xmlns="http://www.w3.org/2000/svg" viewBox="0 0 1000 1000"><defs><style>.cls-1,.cls-3{fill:none;stroke-miterlimit:10;stroke-width:5px;}.cls-1{stroke:#e57373;}.cls-2{fill:#e57373;}.cls-3{stroke:#939598;}.cls-4{fill:#939598;}</style></defs><title>lithiumelectron</title><circle class="cls-1" cx="500" cy="514.59" r="470.87"/><circle class="cls-2" cx="500" cy="43.73" r="29.19"/><circle class="cls-3" cx="500" cy="514.59" r="376.69"/><circle class="cls-4" cx="500" cy="137.9" r="29.19"/><circle class="cls-4" cx="500" cy="891.29" r="29.19"/><path class="cls-2" d="M500,431.54a83.06,83.06,0,1,0,83,83.05A83.05,83.05,0,0,0,500,431.54Zm2.69,100.7H485.44v-33h6.67v27.94h10.58Zm11.16,0h-6.67V506.06h6.67Zm-.47-30a4.06,4.06,0,0,1-5.72-5.77,4.06,4.06,0,0,1,5.72,0,4.12,4.12,0,0,1,0,5.77Z"/></svg>