<svg id="Layer_1" data-name="Layer 1" xmlns="http://www.w3.org/2000/svg" viewBox="0 0 256 256"><defs><style>.cls-1{fill:#424242;}.cls-2{fill:none;stroke:#424242;stroke-miterlimit:10;stroke-width:5px;}</style></defs><title>lithium</title><path class="cls-1" d="M251,5V251H5V5H251m5-5H0V256H256V0Z"/><line class="cls-2" x1="193.33" y1="149.9" x2="62.67" y2="149.9"/><path class="cls-1" d="M103.28,54.06h11.28v47.28h17.92v8.56h-29.2Z"/><path class="cls-1" d="M152.72,54.3a6.65,6.65,0,0,1-2,4.88,6.86,6.86,0,0,1-9.68,0,6.87,6.87,0,1,1,11.68-4.88Zm-12.48,55.6V65.58h11.28V109.9Z"/><path class="cls-1" d="M85.43,191.7h2.73v14.6H93.8v2.08H85.43Z"/><path class="cls-1" d="M99.25,191.66a1.67,1.67,0,0,1-.51,1.24,1.64,1.64,0,0,1-1.23.51,1.72,1.72,0,0,1-1.74-1.75,1.7,1.7,0,0,1,.5-1.25,1.68,1.68,0,0,1,1.24-.51,1.64,1.64,0,0,1,1.23.51A1.67,1.67,0,0,1,99.25,191.66Zm-3.12,16.72V195.16h2.73v13.22Z"/><path class="cls-1" d="M108.92,197.39H105.7v7.32a1.42,1.42,0,0,0,.35,1.07,1.71,1.71,0,0,0,1.19.32h1.68v2.28h-2.16c-2.54,0-3.82-1.22-3.82-3.67v-7.32h-1.56v-2.23h1.56v-3.29h2.76v3.29h3.22Z"/><path class="cls-1" d="M114.22,190.62v6.63a4.51,4.51,0,0,1,4.23-2.31,4.93,4.93,0,0,1,3.68,1.49,5.69,5.69,0,0,1,1.45,4.15v7.8h-2.71V201a3.8,3.8,0,0,0-.89-2.72,3.16,3.16,0,0,0-2.42-1,3.22,3.22,0,0,0-2.44,1,3.8,3.8,0,0,0-.9,2.72v7.39h-2.73V190.62Z"/><path class="cls-1" d="M130.23,191.66a1.72,1.72,0,0,1-1.74,1.75,1.64,1.64,0,0,1-1.23-.51,1.77,1.77,0,0,1,0-2.49,1.64,1.64,0,0,1,1.23-.51,1.68,1.68,0,0,1,1.24.51A1.7,1.7,0,0,1,130.23,191.66Zm-3.12,16.72V195.16h2.74v13.22Z"/><path class="cls-1" d="M142.74,195.16h2.73v13.22h-2.73V206.3a4.5,4.5,0,0,1-4.23,2.28,5,5,0,0,1-3.68-1.48,5.63,5.63,0,0,1-1.45-4.14v-7.8h2.71v7.39a3.82,3.82,0,0,0,.89,2.73,3.16,3.16,0,0,0,2.42.94,3.22,3.22,0,0,0,2.44-.94,3.82,3.82,0,0,0,.9-2.73Z"/><path class="cls-1" d="M151.86,195.16v2.09a4.49,4.49,0,0,1,4.22-2.31,5.24,5.24,0,0,1,2.74.72,4.66,4.66,0,0,1,1.82,2.09,5.12,5.12,0,0,1,1.93-2.06,5.31,5.31,0,0,1,2.8-.75,5,5,0,0,1,3.74,1.48,5.63,5.63,0,0,1,1.46,4.16v7.8h-2.73V201a3.84,3.84,0,0,0-.89-2.72,3.57,3.57,0,0,0-4.85,0,3.84,3.84,0,0,0-.88,2.72v7.39H158.5V201a3.8,3.8,0,0,0-.89-2.72,3.16,3.16,0,0,0-2.42-1,3.2,3.2,0,0,0-2.43,1,3.8,3.8,0,0,0-.9,2.72v7.39h-2.74V195.16Z"/></svg>