<svg id="Layer_1" data-name="Layer 1" xmlns="http://www.w3.org/2000/svg" viewBox="0 0 1000 1000"><defs><style>.cls-1,.cls-3{fill:none;stroke-miterlimit:10;stroke-width:5px;}.cls-1{stroke:#a964a4;}.cls-2{fill:#a964a4;}.cls-3{stroke:#939598;}.cls-4{fill:#939598;}.cls-5{fill:#e0e0e0;}.cls-6{fill:#ba68c8;}</style></defs><title>potassiumelectron</title><circle class="cls-1" cx="500" cy="514.59" r="470.87"/><circle class="cls-2" cx="500" cy="43.73" r="29.19"/><circle class="cls-3" cx="500" cy="514.59" r="188.35"/><circle class="cls-1" cx="500" cy="514.59" r="282.52"/><circle class="cls-2" cx="500" cy="232.07" r="29.19"/><circle class="cls-4" cx="497.9" cy="326.25" r="29.19"/><circle class="cls-4" cx="500" cy="702.94" r="29.19"/><circle class="cls-2" cx="300.23" cy="314.82" r="29.19"/><circle class="cls-2" cx="217.48" cy="514.59" r="29.19"/><circle class="cls-2" cx="300.23" cy="714.37" r="29.19"/><circle class="cls-2" cx="500" cy="797.11" r="29.19"/><circle class="cls-2" cx="699.77" cy="714.37" r="29.19"/><circle class="cls-2" cx="782.52" cy="514.59" r="29.19"/><circle class="cls-2" cx="699.77" cy="314.82" r="29.19"/><circle class="cls-3" cx="500" cy="514.59" r="376.69"/><circle class="cls-5" cx="500" cy="137.9" r="29.19"/><circle class="cls-4" cx="500" cy="137.9" r="29.19"/><circle class="cls-4" cx="233.64" cy="248.23" r="29.19"/><circle class="cls-4" cx="123.31" cy="514.59" r="29.19"/><circle class="cls-4" cx="233.64" cy="780.96" r="29.19"/><circle class="cls-4" cx="500" cy="891.29" r="29.19"/><circle class="cls-4" cx="766.36" cy="780.96" r="29.19"/><circle class="cls-4" cx="876.69" cy="514.59" r="29.19"/><circle class="cls-4" cx="766.36" cy="248.23" r="29.19"/><path class="cls-6" d="M500,431.54a83.06,83.06,0,1,0,83,83.05A83.05,83.05,0,0,0,500,431.54Zm14.89,101.94h-8.65l-12-14.65v14.65h-6.66v-33h6.66v14.75l11.91-14.75h8.7L500.57,517Z"/></svg>