<svg id="Layer_1" data-name="Layer 1" xmlns="http://www.w3.org/2000/svg" viewBox="0 0 256 256"><defs><style>.cls-1{fill:#424242;}.cls-2{fill:none;stroke:#424242;stroke-miterlimit:10;stroke-width:5px;}</style></defs><title>potassium</title><path class="cls-1" d="M251,5V251H5V5H251m5-5H0V256H256V0Z"/><line class="cls-2" x1="193.33" y1="146.57" x2="62.67" y2="146.57"/><path class="cls-1" d="M116.2,106.57H104.92V50.73H116.2v25l20.16-25h14.72l-24.24,28,24.24,27.84H136.44L116.2,81.77Z"/><path class="cls-1" d="M76,189.78a4.55,4.55,0,0,1,1.54,3.5,4.86,4.86,0,0,1-1.45,3.55,6.08,6.08,0,0,1-4.46,1.45h-3v6.77H65.91V188.37h5.76A6.22,6.22,0,0,1,76,189.78Zm-7.39,6.37h3A3.21,3.21,0,0,0,74,195.4a2.74,2.74,0,0,0,.77-2.07,2.78,2.78,0,0,0-.77-2.08,3.26,3.26,0,0,0-2.33-.74h-3Z"/><path class="cls-1" d="M86,205.27a6.4,6.4,0,0,1-4.76-1.89,6.69,6.69,0,0,1-1.88-4.94,6.75,6.75,0,1,1,13.49,0,6.52,6.52,0,0,1-2,4.94A6.75,6.75,0,0,1,86,205.27Zm2.84-3.51a4.5,4.5,0,0,0,1.2-3.33,4.55,4.55,0,0,0-1.16-3.33,3.81,3.81,0,0,0-2.82-1.18,3.67,3.67,0,0,0-2.78,1.18,4.65,4.65,0,0,0-1.13,3.34,4.72,4.72,0,0,0,1.1,3.34A3.6,3.6,0,0,0,86,203,3.89,3.89,0,0,0,88.83,201.76Z"/><path class="cls-1" d="M102,194.06H98.79v7.32a1.42,1.42,0,0,0,.35,1.07,1.77,1.77,0,0,0,1.19.32H102v2.28H99.85q-3.82,0-3.82-3.67v-7.32H94.47v-2.23H96v-3.29h2.76v3.29H102Z"/><path class="cls-1" d="M105.46,203.34a7,7,0,0,1-1.8-5,6.8,6.8,0,0,1,1.79-4.89,5.88,5.88,0,0,1,4.45-1.89,5.29,5.29,0,0,1,2.75.71,5,5,0,0,1,1.84,1.86v-2.35h2.76v13.22h-2.76v-2.47a5.28,5.28,0,0,1-1.85,2,5.14,5.14,0,0,1-2.74.73A5.85,5.85,0,0,1,105.46,203.34Zm7.84-1.66a5,5,0,0,0,0-6.49,3.83,3.83,0,0,0-2.82-1.2,3.88,3.88,0,0,0-2.82,1.17,4.35,4.35,0,0,0-1.19,3.22,4.56,4.56,0,0,0,1.19,3.28,3.87,3.87,0,0,0,5.64,0Z"/><path class="cls-1" d="M120.3,195.62a3.54,3.54,0,0,1,1.41-2.84,5.67,5.67,0,0,1,3.72-1.17,5.49,5.49,0,0,1,3.66,1.14,4.1,4.1,0,0,1,1.45,3.11h-2.8a2.2,2.2,0,0,0-.69-1.54,2.51,2.51,0,0,0-1.71-.55,2.76,2.76,0,0,0-1.73.49,1.57,1.57,0,0,0-.63,1.3,1.4,1.4,0,0,0,.8,1.26,6.07,6.07,0,0,0,1.93.67c.76.15,1.52.32,2.28.53a4.16,4.16,0,0,1,1.93,1.14,3.06,3.06,0,0,1,.79,2.22,3.34,3.34,0,0,1-1.45,2.81,6.09,6.09,0,0,1-3.73,1.08,5.84,5.84,0,0,1-3.7-1.11,4.16,4.16,0,0,1-1.56-3.14h2.83a2.15,2.15,0,0,0,.72,1.54,2.7,2.7,0,0,0,1.77.55,3,3,0,0,0,1.77-.49,1.56,1.56,0,0,0,.66-1.31,1.39,1.39,0,0,0-.79-1.27,6.16,6.16,0,0,0-1.93-.69c-.76-.15-1.52-.33-2.28-.53a4.16,4.16,0,0,1-1.93-1.09A2.84,2.84,0,0,1,120.3,195.62Z"/><path class="cls-1" d="M133.16,195.62a3.53,3.53,0,0,1,1.42-2.84,5.64,5.64,0,0,1,3.72-1.17,5.53,5.53,0,0,1,3.66,1.14,4.17,4.17,0,0,1,1.45,3.11H140.6a2.24,2.24,0,0,0-.68-1.54,2.52,2.52,0,0,0-1.72-.55,2.78,2.78,0,0,0-1.73.49,1.59,1.59,0,0,0-.62,1.3,1.39,1.39,0,0,0,.79,1.26,6.16,6.16,0,0,0,1.93.67c.76.15,1.52.32,2.28.53a4.11,4.11,0,0,1,1.93,1.14,3.07,3.07,0,0,1,.8,2.22,3.35,3.35,0,0,1-1.46,2.81,6.07,6.07,0,0,1-3.73,1.08,5.79,5.79,0,0,1-3.69-1.11,4.09,4.09,0,0,1-1.56-3.14H136a2.15,2.15,0,0,0,.72,1.54,2.67,2.67,0,0,0,1.76.55,3,3,0,0,0,1.78-.49,1.56,1.56,0,0,0,.66-1.31,1.41,1.41,0,0,0-.79-1.27,6.22,6.22,0,0,0-1.94-.69c-.76-.15-1.52-.33-2.28-.53a4.16,4.16,0,0,1-1.93-1.09A2.84,2.84,0,0,1,133.16,195.62Z"/><path class="cls-1" d="M149.74,188.32a1.67,1.67,0,0,1-.5,1.25,1.68,1.68,0,0,1-1.24.51,1.76,1.76,0,0,1,0-3.51,1.68,1.68,0,0,1,1.24.51A1.66,1.66,0,0,1,149.74,188.32Zm-3.12,16.73V191.83h2.74v13.22Z"/><path class="cls-1" d="M162.25,191.83H165v13.22h-2.73V203a4.49,4.49,0,0,1-4.23,2.28,5,5,0,0,1-3.68-1.47,5.66,5.66,0,0,1-1.45-4.14v-7.8h2.71v7.39a3.84,3.84,0,0,0,.89,2.72,3.13,3.13,0,0,0,2.42.95,3.17,3.17,0,0,0,2.44-.95,3.8,3.8,0,0,0,.9-2.72Z"/><path class="cls-1" d="M171.37,191.83v2.09a4.49,4.49,0,0,1,4.22-2.31,5.24,5.24,0,0,1,2.74.72,4.6,4.6,0,0,1,1.82,2.09,5.12,5.12,0,0,1,1.93-2.06,5.31,5.31,0,0,1,2.8-.75,5,5,0,0,1,3.74,1.48,5.63,5.63,0,0,1,1.47,4.16v7.8h-2.74v-7.39a3.8,3.8,0,0,0-.89-2.72,3.56,3.56,0,0,0-4.84,0,3.8,3.8,0,0,0-.89,2.72v7.39H178v-7.39a3.84,3.84,0,0,0-.89-2.72,3.58,3.58,0,0,0-4.86,0,3.8,3.8,0,0,0-.9,2.72v7.39h-2.74V191.83Z"/></svg>