<svg id="Layer_1" data-name="Layer 1" xmlns="http://www.w3.org/2000/svg" viewBox="0 0 1000 1000"><defs><style>.cls-1,.cls-2{fill:none;stroke-miterlimit:10;stroke-width:5px;}.cls-1{stroke:#c2627b;}.cls-2{stroke:#939598;}.cls-3{fill:#c2627b;}.cls-4{fill:#939598;}.cls-5{fill:#e0e0e0;}</style></defs><title>rubidiumelectron</title><circle class="cls-1" cx="500" cy="514.59" r="470.87"/><circle class="cls-2" cx="500" cy="514.59" r="188.35"/><circle class="cls-1" cx="500" cy="514.59" r="282.52"/><circle class="cls-1" cx="500" cy="514.59" r="113.01"/><circle class="cls-3" cx="500" cy="43.73" r="29.19"/><circle class="cls-3" cx="500" cy="232.07" r="29.19"/><circle class="cls-3" cx="502.1" cy="620.07" r="29.19"/><circle class="cls-3" cx="502.1" cy="401.59" r="29.19"/><circle class="cls-3" cx="403.37" cy="249.11" r="29.19"/><circle class="cls-3" cx="318.4" cy="298.17" r="29.19"/><circle class="cls-3" cx="255.33" cy="373.33" r="29.19"/><circle class="cls-3" cx="221.77" cy="465.54" r="29.19"/><circle class="cls-3" cx="221.77" cy="563.65" r="29.19"/><circle class="cls-3" cx="255.33" cy="655.85" r="29.19"/><circle class="cls-3" cx="318.4" cy="731.02" r="29.19"/><circle class="cls-3" cx="403.37" cy="780.08" r="29.19"/><circle class="cls-3" cx="500" cy="797.11" r="29.19"/><circle class="cls-3" cx="596.63" cy="780.08" r="29.19"/><circle class="cls-3" cx="681.6" cy="731.02" r="29.19"/><circle class="cls-3" cx="744.67" cy="655.85" r="29.19"/><circle class="cls-3" cx="778.23" cy="563.65" r="29.19"/><circle class="cls-3" cx="778.23" cy="465.54" r="29.19"/><circle class="cls-3" cx="744.67" cy="373.33" r="29.19"/><circle class="cls-3" cx="681.6" cy="298.17" r="29.19"/><circle class="cls-3" cx="596.63" cy="249.11" r="29.19"/><circle class="cls-4" cx="497.9" cy="326.25" r="29.19"/><circle class="cls-4" cx="365.33" cy="382.9" r="29.19"/><circle class="cls-4" cx="311.65" cy="516.7" r="29.19"/><circle class="cls-4" cx="368.31" cy="649.26" r="29.19"/><circle class="cls-4" cx="502.1" cy="702.94" r="29.19"/><circle class="cls-4" cx="634.67" cy="646.29" r="29.19"/><circle class="cls-4" cx="688.35" cy="512.49" r="29.19"/><circle class="cls-4" cx="631.69" cy="379.93" r="29.19"/><circle class="cls-2" cx="500" cy="514.59" r="376.69"/><circle class="cls-5" cx="500" cy="137.9" r="29.19"/><circle class="cls-4" cx="500" cy="137.9" r="29.19"/><circle class="cls-4" cx="233.64" cy="248.23" r="29.19"/><circle class="cls-4" cx="123.31" cy="514.59" r="29.19"/><circle class="cls-4" cx="233.64" cy="780.96" r="29.19"/><circle class="cls-4" cx="500" cy="891.29" r="29.19"/><circle class="cls-4" cx="766.36" cy="780.96" r="29.19"/><circle class="cls-4" cx="876.69" cy="514.59" r="29.19"/><circle class="cls-4" cx="766.36" cy="248.23" r="29.19"/><path class="cls-3" d="M491.18,507.36a3.93,3.93,0,0,0-2.87-1H484.2v7.23h4.11a3.93,3.93,0,0,0,2.87-1,4,4,0,0,0,0-5.29Z"/><path class="cls-3" d="M500,473.07a41.53,41.53,0,1,0,41.53,41.52A41.53,41.53,0,0,0,500,473.07Zm-8.25,54.23-5.92-9.85H484.2v9.85h-5V502.56h9.11a9.39,9.39,0,0,1,6.61,2.15,6.89,6.89,0,0,1,2.32,5.29,7.4,7.4,0,0,1-1.42,4.36,7.3,7.3,0,0,1-4.46,2.77l6.31,10.17Zm29,0h-5v-3a6.56,6.56,0,0,1-6.14,3.22,7.26,7.26,0,0,1-5.46-2.21,8.56,8.56,0,0,1-2.12-6.15V507.67h5v10.81a5,5,0,0,0,1.17,3.54,4.16,4.16,0,0,0,3.19,1.24,4.22,4.22,0,0,0,3.21-1.24,4.94,4.94,0,0,0,1.19-3.54V507.67h5Z"/></svg>