<svg id="Layer_1" data-name="Layer 1" xmlns="http://www.w3.org/2000/svg" viewBox="0 0 256 256"><defs><style>.cls-1{fill:#424242;}.cls-2{fill:none;stroke:#424242;stroke-miterlimit:10;stroke-width:5px;}</style></defs><title>rubidium</title><path class="cls-1" d="M251,5V251H5V5H251m5-5H0V256H256V0Z"/><line class="cls-2" x1="193.33" y1="146.85" x2="62.67" y2="146.85"/><path class="cls-1" d="M92.32,84.05v22.24H81V50.45H101.6q9.68,0,14.92,4.84a15.66,15.66,0,0,1,5.24,12,16.82,16.82,0,0,1-3.2,9.84q-3.19,4.56-10.08,6.24l14.24,23H109.36L96,84.05Zm0-25V75.41h9.28q4.25,0,6.48-2.2a8,8,0,0,0,2.24-6,8,8,0,0,0-2.24-6c-1.49-1.46-3.65-2.2-6.48-2.2Z"/><path class="cls-1" d="M163.68,62H175v44.32H163.68V99.57q-4.25,7.29-13.84,7.28a16.31,16.31,0,0,1-12.32-5q-4.8-5-4.8-13.88V62h11.2v24.4q0,5.2,2.64,8a9.41,9.41,0,0,0,7.2,2.8,9.54,9.54,0,0,0,7.24-2.8q2.69-2.79,2.68-8Z"/><path class="cls-1" d="M74.07,198.56v6.77H71.34V188.65H77.1a6.21,6.21,0,0,1,4.36,1.41A4.58,4.58,0,0,1,83,193.62a4.85,4.85,0,0,1-1,3,4.93,4.93,0,0,1-3.13,1.76l4.41,6.93H79.93l-4.18-6.77Zm0-7.77v5.64h3a3.19,3.19,0,0,0,2.32-.75,2.7,2.7,0,0,0,.77-2.07,2.74,2.74,0,0,0-.77-2.08,3.23,3.23,0,0,0-2.32-.74Z"/><path class="cls-1" d="M95.79,192.11h2.74v13.22H95.79v-2.09a4.46,4.46,0,0,1-4.22,2.28,5,5,0,0,1-3.69-1.47,5.7,5.7,0,0,1-1.45-4.14v-7.8h2.71v7.39a3.82,3.82,0,0,0,.89,2.72,3.58,3.58,0,0,0,4.86,0,3.78,3.78,0,0,0,.9-2.72Z"/><path class="cls-1" d="M109.52,191.89a5.83,5.83,0,0,1,4.44,1.89,6.84,6.84,0,0,1,1.78,4.89,7,7,0,0,1-1.79,5,5.82,5.82,0,0,1-4.43,1.93,5.08,5.08,0,0,1-2.74-.73,5.5,5.5,0,0,1-1.87-2v2.47h-2.73V187.57h2.73v6.89a5.18,5.18,0,0,1,1.86-1.86A5.29,5.29,0,0,1,109.52,191.89Zm2.23,10.05a4.52,4.52,0,0,0,1.2-3.28,4.31,4.31,0,0,0-1.19-3.22,4,4,0,0,0-5.66,0,5,5,0,0,0,0,6.49,3.88,3.88,0,0,0,5.65,0Z"/><path class="cls-1" d="M121.62,188.6a1.74,1.74,0,1,1-.51-1.24A1.67,1.67,0,0,1,121.62,188.6Zm-3.12,16.73V192.11h2.73v13.22Z"/><path class="cls-1" d="M125.77,203.62a7,7,0,0,1-1.8-5,6.76,6.76,0,0,1,1.79-4.89,5.86,5.86,0,0,1,4.45-1.89,5.31,5.31,0,0,1,2.75.71,5,5,0,0,1,1.83,1.86v-6.89h2.76v17.76h-2.76v-2.47a5.2,5.2,0,0,1-1.85,2,5,5,0,0,1-2.73.73A5.85,5.85,0,0,1,125.77,203.62ZM133.6,202a5,5,0,0,0,0-6.49,3.83,3.83,0,0,0-2.82-1.2,3.91,3.91,0,0,0-2.82,1.17,4.34,4.34,0,0,0-1.18,3.22,4.55,4.55,0,0,0,1.18,3.28,3.87,3.87,0,0,0,5.64,0Z"/><path class="cls-1" d="M144.32,188.6a1.7,1.7,0,0,1-.5,1.25,1.76,1.76,0,0,1-2.48,0,1.8,1.8,0,0,1,0-2.49,1.74,1.74,0,0,1,3,1.24Zm-3.12,16.73V192.11h2.74v13.22Z"/><path class="cls-1" d="M156.82,192.11h2.74v13.22h-2.74v-2.09a4.46,4.46,0,0,1-4.22,2.28,4.93,4.93,0,0,1-3.68-1.47,5.67,5.67,0,0,1-1.46-4.14v-7.8h2.72v7.39a3.82,3.82,0,0,0,.88,2.72,3.58,3.58,0,0,0,4.86,0,3.78,3.78,0,0,0,.9-2.72Z"/><path class="cls-1" d="M165.94,192.11v2.09a4.51,4.51,0,0,1,4.23-2.31,5.2,5.2,0,0,1,2.73.72,4.62,4.62,0,0,1,1.83,2.09,5.12,5.12,0,0,1,1.93-2.06,5.29,5.29,0,0,1,2.8-.75,5,5,0,0,1,3.74,1.48,5.63,5.63,0,0,1,1.46,4.16v7.8h-2.73v-7.39a3.84,3.84,0,0,0-.89-2.72,3.57,3.57,0,0,0-4.85,0,3.84,3.84,0,0,0-.89,2.72v7.39h-2.71v-7.39a3.8,3.8,0,0,0-.89-2.72,3.13,3.13,0,0,0-2.42-.95,3.19,3.19,0,0,0-2.44.95,3.8,3.8,0,0,0-.9,2.72v7.39h-2.73V192.11Z"/></svg>