<svg id="Layer_1" data-name="Layer 1" xmlns="http://www.w3.org/2000/svg" viewBox="0 0 256 256"><defs><style>.cls-1{fill:#424242;}.cls-2{fill:none;stroke:#424242;stroke-miterlimit:10;stroke-width:5px;}</style></defs><title>sodium</title><path class="cls-1" d="M251,5V251H5V5H251m5-5H0V256H256V0Z"/><line class="cls-2" x1="193.33" y1="146.97" x2="62.67" y2="146.97"/><path class="cls-1" d="M113.08,50.33h11.28v56H113.08L87.8,67.61v38.72H76.52v-56H87.8l25.28,38.72Z"/><path class="cls-1" d="M139.36,100.53q-6-6.44-6-16.44t5.92-16.36a19.66,19.66,0,0,1,15-6.36,15.53,15.53,0,0,1,13.92,7.52V62h11.2v44.32h-11.2V98.89q-5,8.08-14,8.08A19.46,19.46,0,0,1,139.36,100.53Zm25.4-6.8q3.53-3.48,3.52-9.56t-3.52-9.56a11.49,11.49,0,0,0-16.44,0q-3.48,3.45-3.48,9.52t3.52,9.6a11.36,11.36,0,0,0,16.4,0Z"/><path class="cls-1" d="M88.52,190.79a3.09,3.09,0,0,0-2,.62,2.21,2.21,0,0,0-.77,1.81,2.06,2.06,0,0,0,.91,1.82,6.42,6.42,0,0,0,2.21.91c.87.19,1.73.41,2.59.66A4.67,4.67,0,0,1,93.68,198a4.08,4.08,0,0,1,.91,2.85A4.45,4.45,0,0,1,93,204.16a5.87,5.87,0,0,1-4.17,1.46,6.93,6.93,0,0,1-4.25-1.22A4,4,0,0,1,83,201h2.93a2.52,2.52,0,0,0,.81,1.75,3,3,0,0,0,2.11.65,3.19,3.19,0,0,0,2.2-.72,2.39,2.39,0,0,0,.31-3.24,3.06,3.06,0,0,0-1.27-.83c-.52-.18-1.09-.34-1.72-.49s-1.25-.31-1.88-.5a7.73,7.73,0,0,1-1.73-.75,3.4,3.4,0,0,1-1.27-1.33A4.3,4.3,0,0,1,83,193.4a4.37,4.37,0,0,1,1.57-3.51,6.09,6.09,0,0,1,4.08-1.33,6.41,6.41,0,0,1,4,1.15A4.4,4.4,0,0,1,94.3,193h-3a2.34,2.34,0,0,0-.82-1.6A2.73,2.73,0,0,0,88.52,190.79Z"/><path class="cls-1" d="M103.63,205.67a6.4,6.4,0,0,1-4.76-1.89A6.69,6.69,0,0,1,97,198.84a6.75,6.75,0,1,1,13.49,0,6.52,6.52,0,0,1-2,4.94A6.75,6.75,0,0,1,103.63,205.67Zm2.84-3.51a4.5,4.5,0,0,0,1.2-3.33,4.55,4.55,0,0,0-1.16-3.33,3.81,3.81,0,0,0-2.82-1.18,3.67,3.67,0,0,0-2.78,1.18,4.65,4.65,0,0,0-1.13,3.34,4.72,4.72,0,0,0,1.1,3.34,3.6,3.6,0,0,0,2.75,1.18A3.89,3.89,0,0,0,106.47,202.16Z"/><path class="cls-1" d="M114.13,203.74a7,7,0,0,1-1.8-5,6.76,6.76,0,0,1,1.79-4.89,5.86,5.86,0,0,1,4.45-1.89,5.31,5.31,0,0,1,2.75.71,5,5,0,0,1,1.83,1.86v-6.89h2.76v17.76h-2.76V203a5.2,5.2,0,0,1-1.85,2,5.11,5.11,0,0,1-2.73.73A5.85,5.85,0,0,1,114.13,203.74Zm7.83-1.66a5,5,0,0,0,0-6.49,3.83,3.83,0,0,0-2.82-1.2,3.91,3.91,0,0,0-2.82,1.17,4.34,4.34,0,0,0-1.18,3.22,4.55,4.55,0,0,0,1.18,3.28,3.87,3.87,0,0,0,5.64,0Z"/><path class="cls-1" d="M132.68,188.72a1.7,1.7,0,0,1-.5,1.25,1.76,1.76,0,0,1-2.48,0,1.8,1.8,0,0,1,0-2.49,1.74,1.74,0,0,1,3,1.24Zm-3.12,16.73V192.23h2.74v13.22Z"/><path class="cls-1" d="M145.18,192.23h2.74v13.22h-2.74v-2.09a4.48,4.48,0,0,1-4.22,2.28,4.93,4.93,0,0,1-3.68-1.47,5.67,5.67,0,0,1-1.46-4.14v-7.8h2.72v7.39a3.84,3.84,0,0,0,.88,2.72,3.58,3.58,0,0,0,4.86,0,3.8,3.8,0,0,0,.9-2.72Z"/><path class="cls-1" d="M154.3,192.23v2.09a4.51,4.51,0,0,1,4.23-2.31,5.2,5.2,0,0,1,2.73.72,4.62,4.62,0,0,1,1.83,2.09,5.12,5.12,0,0,1,1.93-2.06,5.29,5.29,0,0,1,2.8-.75,5,5,0,0,1,3.74,1.48,5.63,5.63,0,0,1,1.46,4.16v7.8h-2.73v-7.39a3.84,3.84,0,0,0-.89-2.72,3.57,3.57,0,0,0-4.85,0,3.84,3.84,0,0,0-.89,2.72v7.39H161v-7.39a3.8,3.8,0,0,0-.89-2.72,3.13,3.13,0,0,0-2.42-1,3.19,3.19,0,0,0-2.44,1,3.8,3.8,0,0,0-.9,2.72v7.39h-2.73V192.23Z"/></svg>