<svg id="Layer_1" data-name="Layer 1" xmlns="http://www.w3.org/2000/svg" viewBox="0 0 1000 1000"><defs><style>.cls-1,.cls-3{fill:none;stroke-miterlimit:10;stroke-width:5px;}.cls-1{stroke:#f7a926;}.cls-2{fill:#f7a926;}.cls-3{stroke:#939598;}.cls-4{fill:#e0e0e0;}.cls-5{fill:#939598;}</style></defs><title>sodiumelectron</title><circle class="cls-1" cx="500" cy="514.59" r="470.87"/><circle class="cls-1" cx="500" cy="514.59" r="282.52"/><circle class="cls-2" cx="500" cy="43.73" r="29.19"/><circle class="cls-2" cx="500" cy="232.07" r="29.19"/><circle class="cls-3" cx="500" cy="514.59" r="376.69"/><circle class="cls-4" cx="500" cy="137.9" r="29.19"/><circle class="cls-5" cx="500" cy="137.9" r="29.19"/><circle class="cls-5" cx="233.64" cy="248.23" r="29.19"/><circle class="cls-5" cx="123.31" cy="514.59" r="29.19"/><circle class="cls-5" cx="233.64" cy="780.96" r="29.19"/><circle class="cls-5" cx="500" cy="891.29" r="29.19"/><circle class="cls-5" cx="766.36" cy="780.96" r="29.19"/><circle class="cls-5" cx="876.69" cy="514.59" r="29.19"/><circle class="cls-5" cx="766.36" cy="248.23" r="29.19"/><path class="cls-2" d="M516.8,511.67a6.64,6.64,0,0,0-4.84,2,7.54,7.54,0,0,0-2.06,5.62A7.67,7.67,0,0,0,512,525a6.72,6.72,0,0,0,9.69,0,8.71,8.71,0,0,0,0-11.3A6.72,6.72,0,0,0,516.8,511.67Z"/><path class="cls-2" d="M500,431.54a83.06,83.06,0,1,0,83,83.05A83.05,83.05,0,0,0,500,431.54Zm-2.1,100.93h-6.67L476.3,509.59v22.88h-6.67V499.39h6.67l14.93,22.87V499.39h6.67Zm32.47,0h-6.62v-4.39a9.27,9.27,0,0,1-8.27,4.77,11.51,11.51,0,0,1-8.82-3.81,13.75,13.75,0,0,1-3.52-9.71,13.61,13.61,0,0,1,3.5-9.66,11.59,11.59,0,0,1,8.89-3.76,9.17,9.17,0,0,1,8.22,4.44v-4.06h6.62Z"/></svg>